Coordinates
version=1
nRows=19
nColumns=24
inDegrees=yes

Units are S.I. units (second, meters, Newtons, ...)
Angles are in degrees.

endheader
time	pelvis_tilt	pelvis_list	pelvis_rotation	pelvis_tx	pelvis_ty	pelvis_tz	hip_flexion_r	hip_adduction_r	hip_rotation_r	knee_angle_r	ankle_angle_r	subtalar_angle_r	mtp_angle_r	hip_flexion_l	hip_adduction_l	hip_rotation_l	knee_angle_l	ankle_angle_l	subtalar_angle_l	mtp_angle_l	lumbar_extension	lumbar_bending	lumbar_rotation
      3.53500000	     19.58194436	     -9.07240643	      5.85153788	      0.45291876	      0.97335190	      0.02943101	    -16.83421738	     14.27707987	    -12.00682647	     -5.27257624	      5.10258090	      5.95069051	      0.00000000	     -4.11723654	    -13.87705876	     -2.17085162	    -64.18686016	      2.09244740	     -4.86975383	     28.86747508	    -28.56982988	     10.58127971	     -0.10573951
      3.54000000	     19.50790666	     -8.90078597	      5.79279476	      0.45847488	      0.97367600	      0.02986580	    -17.31957204	     14.16077955	    -11.70158080	     -4.95336863	      5.29920950	      5.83512468	      0.00000000	     -3.36030395	    -13.52458957	     -2.14822457	    -63.82275034	      3.01403215	     -4.74260828	     28.93739429	    -28.53519306	     10.36236253	     -0.09085448
      3.54500000	     19.44460455	     -8.76220947	      5.72249547	      0.46407706	      0.97395471	      0.03029099	    -17.81635176	     14.07125007	    -11.38322609	     -4.64298448	      5.52087741	      5.68856343	      0.00000000	     -2.64791638	    -13.21490923	     -2.17848838	    -63.38098337	      3.97171406	     -4.54071689	     29.02780288	    -28.50492386	     10.17754625	     -0.03138335
      3.55000000	     19.39373587	     -8.61847027	      5.63602020	      0.46966702	      0.97421177	      0.03073173	    -18.32983377	     13.96971605	    -11.04823527	     -4.32878732	      5.73334386	      5.52388647	      0.00000000	     -1.98104241	    -12.89758175	     -2.23926089	    -62.85906135	      4.91296099	     -4.28294038	     29.11678791	    -28.49340514	      9.97902989	      0.04328655
      3.55500000	     19.35891726	     -8.48439576	      5.53760228	      0.47527907	      0.97444676	      0.03117480	    -18.86710821	     13.87163375	    -10.69373313	     -4.00806108	      5.93931938	      5.33311675	      0.00000000	     -1.36898706	    -12.59193284	     -2.32735253	    -62.25302434	      5.85515373	     -3.95275081	     29.18432878	    -28.49767651	      9.78651899	      0.15206647
      3.56000000	     19.32804478	     -8.35243884	      5.42414021	      0.48088128	      0.97465565	      0.03162182	    -19.41200715	     13.76722802	    -10.32555417	     -3.68017260	      6.13037324	      5.12795926	      0.00000000	     -0.79510829	    -12.28491642	     -2.43678705	    -61.56863311	      6.78457489	     -3.57047836	     29.20582859	    -28.50838439	      9.58997916	      0.27488426
      3.56500000	     19.30729032	     -8.21251267	      5.31018563	      0.48652163	      0.97482536	      0.03204669	    -19.97822089	     13.65102110	     -9.96474277	     -3.33821314	      6.32122535	      4.95177556	      0.00000000	     -0.26435878	    -11.97341555	     -2.56919600	    -60.81566672	      7.66745864	     -3.12863739	     29.18392694	    -28.52508511	      9.38829432	      0.38715567
      3.57000000	     19.28331307	     -8.12401105	      5.15948807	      0.49210781	      0.97494254	      0.03256983	    -20.55928283	     13.58218256	     -9.43259848	     -2.94755015	      6.39349722	      4.32933999	      0.00000000	      0.24663225	    -11.72259903	     -2.74063155	    -60.02573761	      8.63206655	     -2.62193394	     28.33205005	    -28.54903702	      9.21548762	      0.57416110
      3.57500000	     19.25239445	     -7.98207743	      5.04907967	      0.49775802	      0.97500835	      0.03295068	    -21.09496528	     13.44987919	     -9.18787090	     -2.64376635	      6.63128800	      4.38517525	      0.00000000	      0.73894905	    -11.40588453	     -2.86500371	    -59.16350043	      9.43981934	     -2.04280107	     28.28470661	    -28.55121636	      9.01514000	      0.68537536
      3.58000000	     19.24279345	     -7.87281513	      4.89303069	      0.50336203	      0.97505308	      0.03341654	    -21.67147916	     13.34028280	     -8.79048886	     -2.29945905	      6.72335991	      4.05048766	      0.00000000	      1.17442142	    -11.13075492	     -3.04427651	    -58.27625687	     10.41755540	     -1.34663643	     26.54381888	    -28.58961592	      8.82390031	      0.86919071
      3.58500000	     19.19912456	     -7.77087825	      4.78840604	      0.50899889	      0.97497002	      0.03380077	    -22.20612036	     13.24765471	     -8.51396863	     -1.95326693	      6.95572914	      4.13271727	      0.00000000	      1.65831610	    -10.86594139	     -3.16259631	    -57.37171184	     11.05890760	     -0.75938468	     26.50213349	    -28.57716755	      8.66391367	      0.98368186
      3.59000000	     19.21707543	     -7.67761558	      4.61948919	      0.51459217	      0.97495557	      0.03426657	    -22.82947001	     13.14230932	     -8.07682394	     -1.56916878	      7.02699872	      3.87469353	      0.00000000	      2.02173244	    -10.61850058	     -3.36434063	    -56.42997699	     11.83755013	     -0.13246270	     24.78850285	    -28.64694270	      8.48468277	      1.19545094
      3.59500000	     19.15336671	     -7.62203304	      4.51953150	      0.52018065	      0.97470847	      0.03461773	    -23.29522698	     13.08633239	     -7.89200139	     -1.30855148	      7.26574183	      3.94399244	      0.00000000	      2.51760785	    -10.41344704	     -3.46883619	    -55.53740016	     12.41048827	      0.53363604	     24.54325247	    -28.61719967	      8.37462218	      1.34499139
      3.60000000	     19.11514613	     -7.55455636	      4.37963012	      0.52576631	      0.97447975	      0.03503865	    -23.84498451	     13.00879273	     -7.52877736	     -0.92998299	      7.35941719	      3.77860279	      0.00000000	      2.95480850	    -10.20288083	     -3.62555481	    -54.64087286	     12.95136913	      1.15665599	     22.58706782	    -28.62001996	      8.23407029	      1.51328507
      3.60500000	     18.99865624	     -7.51436980	      4.29232117	      0.53134937	      0.97407119	      0.03538506	    -24.24687541	     12.97156982	     -7.39734444	     -0.66540537	      7.55871114	      3.84370661	      0.00000000	      3.51170637	    -10.02506430	     -3.70862333	    -53.78538365	     13.19961628	      1.72204660	     22.43974162	    -28.53151320	      8.14152419	      1.62498637
      3.61000000	     18.94137131	     -7.49025193	      4.17418984	      0.53689574	      0.97368336	      0.03575581	    -24.74112568	     12.93700189	     -7.11208678	     -0.34283408	      7.67780994	      3.75593622	      0.00000000	      3.98458356	     -9.87417805	     -3.83650423	    -52.95236524	     13.57900098	      2.24557098	     20.61286144	    -28.51520179	      8.05502086	      1.80000394
      3.61500000	     18.82291006	     -7.48818385	      4.09131944	      0.54244489	      0.97314190	      0.03608363	    -25.12518260	     12.93382302	     -6.97975996	     -0.09977442	      7.86783844	      3.83987218	      0.00000000	      4.55264530	     -9.75959636	     -3.93268070	    -52.15602425	     13.65170590	      2.70344421	     20.44961027	    -28.42669555	      8.00480656	      1.93208461
      3.62000000	     19.21631563	     -6.97175719	      3.75494042	      0.54834822	      0.97393917	      0.03682053	    -26.18872798	     12.34082886	     -6.95070324	      0.26461764	      7.95325914	      4.11056025	      0.00000000	      3.93899831	     -9.15926976	     -4.94482171	    -49.38365708	     13.57784258	      2.26931101	     20.95360399	    -28.89943749	      7.29896192	      2.04960571
      3.62500000	     20.12357932	     -5.99539741	      3.05738656	      0.55484818	      0.97598866	      0.03794016	    -27.89011540	     11.13367176	     -7.13426003	      0.63453533	      8.14090209	      5.12690221	      0.00000000	      1.95845055	     -8.03762270	     -6.91417634	    -44.49647713	     13.28427232	      0.53426197	     26.12722273	    -29.89785493	      5.96301925	      2.30276057
